<?xml version="1.0" standalone="no"?>
<!DOCTYPE svg PUBLIC "-//W3C//DTD SVG 20010904//EN"
 "http://www.w3.org/TR/2001/REC-SVG-20010904/DTD/svg10.dtd">
<svg version="1.0" xmlns="http://www.w3.org/2000/svg"
 width="360.000000pt" height="540.000000pt" viewBox="0 0 360.000000 540.000000"
 preserveAspectRatio="xMidYMid meet">

<g transform="translate(0.000000,540.000000) scale(0.100000,-0.100000)"
fill="#000000" stroke="none">
<path d="M1733 5323 c4 -3 0 -15 -9 -25 -15 -16 -18 -16 -29 -2 -10 15 -14 15
-43 0 -18 -9 -32 -19 -32 -22 0 -2 14 3 31 11 49 26 45 10 -5 -19 -52 -30 -64
-33 -45 -9 25 31 -44 -23 -81 -64 -33 -36 -33 -36 10 5 63 58 75 53 15 -8 -26
-27 -52 -47 -56 -44 -4 2 -11 -1 -15 -7 -4 -8 -3 -9 4 -5 16 10 16 9 -19 -59
-22 -42 -30 -51 -25 -30 l6 30 -17 -32 c-20 -39 -28 -41 -37 -10 -11 42 -5
102 14 146 11 24 20 45 20 47 0 10 -77 -29 -99 -49 -36 -33 -61 -96 -61 -155
0 -33 -4 -51 -10 -47 -14 8 -13 121 1 147 8 15 8 19 0 14 -26 -16 -43 -70 -39
-118 l5 -49 -28 27 c-15 14 -33 40 -40 56 l-12 30 -12 -23 c-25 -49 -27 -109
-5 -154 12 -24 27 -46 35 -49 37 -14 8 -21 -67 -15 -46 3 -85 3 -88 1 -3 -2
14 -21 38 -43 23 -22 42 -42 42 -44 0 -9 -78 9 -107 26 l-33 18 16 -37 c8 -20
27 -49 42 -65 l26 -27 -34 6 c-19 4 -53 13 -74 21 -22 7 -41 11 -43 9 -3 -2 5
-27 17 -55 20 -46 81 -114 124 -138 16 -9 16 -11 -3 -44 -27 -47 -51 -143 -50
-204 0 -27 3 -43 5 -35 11 32 58 130 63 130 3 0 6 -35 7 -78 0 -56 6 -89 21
-122 l21 -45 1 52 c1 61 16 78 25 29 4 -19 23 -67 43 -106 l36 -72 -18 -37
c-11 -22 -19 -66 -22 -116 -2 -49 0 -72 5 -60 7 15 10 6 15 -36 8 -68 39 -160
67 -200 28 -38 81 -65 260 -129 168 -60 231 -88 289 -131 53 -38 50 -58 -9
-75 -70 -21 -72 -20 -65 29 5 33 3 47 -12 63 -39 45 -70 39 -109 -22 -15 -21
-17 -22 -52 -8 -20 9 -53 23 -72 32 l-35 16 35 6 c23 3 31 8 22 13 -7 5 -71 3
-142 -3 -72 -7 -157 -10 -189 -8 -66 5 -71 -6 -11 -22 22 -6 40 -14 40 -18 -1
-4 -19 -19 -40 -34 -30 -21 -40 -24 -40 -13 0 9 -11 42 -24 75 l-24 59 25 33
c47 61 71 128 76 213 5 75 5 76 -4 25 -20 -113 -41 -176 -75 -223 -31 -43 -34
-52 -25 -76 7 -14 13 -51 14 -81 2 -30 11 -70 20 -89 9 -19 17 -41 17 -48 0
-19 -66 -137 -98 -175 l-26 -31 33 -59 c32 -58 32 -61 21 -110 -9 -36 -18 -52
-32 -56 -15 -4 -4 -13 49 -41 101 -54 223 -135 220 -146 -5 -15 -46 -18 -61
-6 -8 6 -22 8 -31 4 -12 -4 -16 -3 -11 5 4 7 -9 21 -33 37 -48 30 -64 33 -28
5 14 -11 30 -20 37 -20 6 0 8 -5 5 -10 -9 -15 14 -40 31 -33 10 3 12 0 9 -10
-4 -8 4 -22 17 -33 33 -26 118 -132 118 -147 0 -6 -24 11 -52 39 -60 58 -123
88 -167 82 -27 -4 -29 -2 -29 22 1 15 -2 32 -6 39 -9 14 -1 14 27 0 56 -30 -5
12 -106 71 -61 36 -113 73 -115 82 -2 8 9 31 25 49 23 29 24 31 4 14 -13 -11
-30 -34 -37 -52 -12 -29 -10 -39 28 -143 41 -109 42 -113 25 -141 -15 -28 -15
-32 0 -64 15 -31 15 -36 1 -52 -75 -88 -128 -155 -128 -161 0 -4 21 -28 46
-52 54 -54 74 -88 75 -132 0 -18 4 -42 9 -53 7 -16 9 -11 9 21 1 35 7 47 37
74 49 42 73 50 157 50 l71 0 53 -58 c29 -31 53 -60 53 -64 0 -3 -21 0 -47 8
-25 8 -68 14 -94 14 -26 0 -70 5 -99 12 -61 14 -71 7 -99 -68 -10 -27 -23 -48
-29 -47 -18 4 -14 -22 6 -39 9 -9 31 -23 48 -31 30 -16 32 -15 42 7 7 16 27
30 59 40 48 16 147 25 157 15 11 -11 27 -115 25 -164 -1 -32 8 -78 26 -129 26
-73 27 -87 22 -182 -4 -74 -12 -117 -27 -151 -27 -60 -28 -97 -5 -123 17 -19
17 -33 0 -85 -4 -15 3 -32 24 -59 23 -29 31 -49 31 -80 0 -23 -5 -47 -11 -53
-12 -12 -1 -41 25 -62 14 -12 13 -15 -6 -30 -18 -15 -20 -24 -14 -63 6 -41 9
-45 31 -40 15 2 25 0 25 -7 0 -9 -19 -15 -41 -13 -4 1 -9 -20 -11 -47 -3 -26
-13 -56 -22 -67 -47 -52 -76 -99 -87 -145 -15 -57 1 -51 -189 -73 -238 -28
-273 -55 -115 -91 172 -39 814 -64 1204 -46 235 10 457 30 501 44 8 3 27 8 43
11 15 4 27 13 27 21 0 20 -81 42 -206 57 -101 12 -104 13 -104 38 0 22 -12 51
-69 160 -10 21 -26 30 -63 39 -27 6 -59 11 -71 10 -12 -1 7 -7 43 -15 35 -8
68 -18 72 -22 4 -4 -34 -8 -85 -9 -50 0 -101 -2 -111 -4 -34 -7 -29 20 6 30
18 5 26 10 18 10 -8 1 -31 -3 -50 -9 -22 -6 -38 -6 -44 0 -6 6 14 20 55 40
l64 30 -45 -4 c-25 -3 -54 -8 -63 -12 -9 -3 -17 -1 -17 4 0 15 50 49 90 60
l35 10 -32 1 c-39 1 -41 6 -10 32 12 11 -4 4 -35 -16 -63 -39 -68 -40 -68 -22
0 6 19 25 41 41 l40 28 -20 22 c-32 34 -26 39 32 32 28 -4 73 -6 100 -6 47 1
57 -6 36 -27 -8 -8 -5 -14 10 -22 19 -11 30 -41 15 -41 -13 0 -74 42 -74 51 0
15 -27 10 -41 -9 -13 -15 -12 -16 3 -4 9 8 22 11 28 7 16 -10 12 -33 -7 -44
-10 -6 -13 -11 -7 -11 5 0 15 5 21 11 12 12 37 3 28 -11 -3 -4 11 -10 29 -12
31 -3 35 -1 40 25 11 53 7 76 -15 88 -21 11 -21 11 10 39 34 32 36 39 20 85
-10 27 -8 38 20 94 33 64 34 91 6 91 -19 0 -19 9 1 49 15 30 15 35 -1 72 -18
39 -18 40 5 90 24 50 24 51 7 99 -21 59 -21 81 -1 195 24 139 22 135 54 147
23 8 30 16 30 37 0 15 4 31 10 37 6 6 6 23 -1 47 -12 45 -5 60 27 54 19 -3 40
13 109 83 l85 87 0 96 c0 92 1 96 35 146 39 56 43 77 20 107 -14 18 -14 17 -5
-10 6 -16 9 -30 8 -31 -2 -2 -46 -8 -99 -15 -98 -11 -181 -11 -174 0 8 12 -43
135 -54 132 -21 -4 -11 14 17 30 15 9 83 37 152 63 123 46 161 63 107 50 -15
-4 -27 -4 -27 0 0 3 23 31 52 61 l52 55 -14 37 c-7 20 -44 101 -83 180 -45 94
-67 150 -64 164 5 16 -8 37 -49 84 l-56 63 28 36 c23 31 26 40 16 56 -10 16
-9 22 9 40 20 20 21 28 14 108 -4 47 -13 96 -21 108 -13 20 -12 30 6 83 24 71
24 80 5 106 -14 18 -15 17 -4 -8 10 -22 8 -40 -11 -99 -17 -52 -20 -74 -12
-77 7 -2 12 -13 12 -25 0 -16 -3 -18 -9 -9 -4 8 -6 -19 -3 -61 5 -88 16 -81
-138 -97 -144 -16 -225 -44 -282 -98 l-28 -26 0 31 c0 16 -8 37 -18 46 -27 24
-76 -3 -96 -55 -14 -33 -20 -39 -43 -36 -14 2 -31 11 -37 21 -15 24 14 49 130
112 135 73 190 114 297 220 66 67 107 117 128 159 29 59 30 64 23 149 -4 48
-4 87 -1 87 4 0 13 -12 21 -27 8 -16 15 -23 16 -18 0 6 -7 21 -16 33 -14 21
-13 26 17 88 25 50 34 62 39 48 4 -10 9 -13 13 -8 6 10 24 115 30 169 2 30 3
30 24 -15 l21 -45 1 76 c1 69 -10 153 -25 203 -10 30 14 9 36 -32 l19 -37 1
36 c0 61 -36 161 -76 207 -20 24 -35 44 -33 46 2 1 18 10 34 20 48 29 85 68
107 110 17 34 18 38 3 32 -9 -3 -24 -6 -33 -7 -10 -1 -7 -4 8 -8 22 -7 19 -9
-24 -16 -26 -4 -74 -5 -105 -2 -57 5 -118 23 -109 33 3 2 18 0 34 -6 20 -8 30
-8 32 -1 2 6 21 11 43 11 21 0 39 4 39 9 0 21 -91 89 -155 115 -38 15 -79 32
-90 36 -14 6 1 9 45 10 l65 1 -55 29 c-110 56 -211 72 -285 44 -43 -17 7 25
65 55 l59 29 -63 16 c-96 24 -250 4 -380 -50 -15 -6 -17 -4 -11 7 5 8 5 11 -1
6 -5 -5 -9 -14 -9 -19 0 -6 -6 -13 -14 -16 -9 -3 -11 0 -6 9 5 7 -6 3 -23 -9
-17 -13 -35 -28 -38 -35 -4 -7 1 -5 12 4 40 33 48 31 15 -4 -19 -21 -35 -37
-35 -37 -1 0 -2 14 -3 31 -3 40 36 122 82 177 29 33 33 42 19 42 -9 0 -14 -3
-11 -7z m-66 -102 c-17 -33 -33 -58 -35 -56 -4 4 36 84 50 103 21 26 16 10
-15 -47z m410 3 c-3 -3 -12 -4 -19 -1 -8 3 -5 6 6 6 11 1 17 -2 13 -5z m-677
-18 c0 -2 -16 -14 -34 -26 -44 -27 -75 -77 -86 -138 -7 -43 -8 -44 -9 -11 -1
47 41 128 81 157 31 21 48 27 48 18z m793 -83 c-7 -2 -21 -2 -30 0 -10 3 -4 5
12 5 17 0 24 -2 18 -5z m122 -102 c33 -10 83 -30 110 -45 56 -31 48 -29 -44 9
-35 15 -91 33 -125 40 -40 9 -51 14 -31 14 17 1 57 -7 90 -18z m-297 -28 c-10
-2 -26 -2 -35 0 -10 3 -2 5 17 5 19 0 27 -2 18 -5z m-71 -9 c-3 -3 -12 -4 -19
-1 -8 3 -5 6 6 6 11 1 17 -2 13 -5z m150 0 c-3 -3 -12 -4 -19 -1 -8 3 -5 6 6
6 11 1 17 -2 13 -5z m44 -72 c25 -16 59 -47 77 -69 33 -42 85 -144 77 -152 -6
-6 -6 -7 -39 61 -35 71 -96 142 -145 168 -20 10 -31 19 -25 20 5 0 30 -13 55
-28z m-632 -587 c18 -25 52 -56 76 -71 44 -25 145 -58 145 -47 0 4 -10 20 -23
37 -37 49 -42 63 -16 40 22 -20 156 -104 165 -104 7 0 -35 78 -46 85 -5 3 -10
11 -10 16 0 15 38 -8 88 -55 l45 -41 -6 60 c-6 57 -6 59 8 30 8 -16 14 -37 15
-45 0 -11 4 -9 12 5 6 11 12 22 14 24 2 2 17 -10 34 -27 l31 -31 -28 -7 c-36
-9 -93 -51 -93 -70 0 -18 14 -18 30 0 21 27 101 50 172 50 37 1 68 2 68 3 0 2
-20 8 -45 14 -25 6 -45 14 -45 18 -1 3 -5 25 -9 49 -9 46 -8 46 46 -1 12 -11
26 -16 32 -13 12 8 71 -78 71 -103 1 -13 4 -12 16 4 15 19 16 18 12 -23 -3
-31 0 -41 9 -38 35 14 -12 -245 -62 -345 -13 -25 -41 -57 -62 -72 -50 -34
-170 -90 -266 -121 l-76 -26 -82 26 c-107 34 -216 84 -257 119 -40 34 -67 85
-97 185 -23 77 -45 222 -45 290 l1 35 19 -35 20 -35 -6 77 c-4 42 -4 88 0 102
l6 25 36 -37 36 -37 -6 35 -6 34 36 -34 c28 -27 35 -30 31 -15 -3 11 -9 34
-12 50 -4 17 -9 38 -12 48 -7 27 1 21 36 -28z m-247 -272 c23 -21 23 -29 -2
-36 -13 -3 -20 -13 -19 -29 l2 -23 4 23 c3 16 9 22 20 18 8 -3 19 -6 24 -6 12
0 12 -37 -1 -45 -5 -3 -9 -16 -9 -28 1 -17 2 -18 6 -4 7 25 30 21 50 -9 13
-21 14 -30 5 -45 -10 -16 -9 -19 3 -19 12 0 35 -36 35 -55 0 -5 -56 11 -93 26
-61 26 -109 170 -73 224 19 30 24 30 48 8z m1148 -2 c13 -25 13 -102 -1 -138
-6 -15 -20 -39 -32 -51 -25 -27 -88 -62 -112 -62 -14 0 -14 3 0 30 9 17 13 35
10 40 -5 8 15 46 42 80 8 10 22 -26 18 -45 -4 -17 -3 -16 6 3 10 18 9 26 -5
41 -15 16 -15 22 -4 40 7 12 17 21 23 21 5 0 4 4 -2 8 -10 6 -9 13 3 30 19 27
40 28 54 3z m-614 -582 c9 -8 25 -3 57 15 54 32 57 32 57 2 0 -13 10 -36 22
-51 29 -37 16 -55 -52 -78 -68 -23 -131 -15 -173 23 -29 26 -30 28 -14 51 10
13 17 36 17 51 l0 28 37 -15 c20 -9 42 -20 49 -26z m721 -11 c-2 -13 -4 -5 -4
17 -1 22 1 32 4 23 2 -10 2 -28 0 -40z m-1037 16 c0 -2 -9 0 -20 6 -11 6 -20
13 -20 16 0 2 9 0 20 -6 11 -6 20 -13 20 -16z m31 -7 c-13 -13 -26 -3 -16 12
3 6 11 8 17 5 6 -4 6 -10 -1 -17z m84 -47 c3 -6 -1 -7 -9 -4 -18 7 -21 14 -7
14 6 0 13 -4 16 -10z m932 -42 c-3 -8 -6 -5 -6 6 -1 11 2 17 5 13 3 -3 4 -12
1 -19z m-48 -56 l33 -28 -26 -30 -26 -29 -20 25 c-20 26 -24 90 -5 90 6 0 25
-13 44 -28z m-1252 -109 c12 -43 8 -209 -7 -299 -13 -79 -10 -109 15 -179 6
-17 5 -18 -5 -5 -13 16 -12 13 12 -73 6 -21 8 -40 5 -44 -10 -9 -106 30 -139
57 -58 49 -3 85 57 38 l27 -21 -13 24 c-8 13 -20 30 -27 37 -7 8 -38 48 -69
90 -39 53 -52 77 -43 82 9 5 11 23 8 54 -4 30 -1 52 8 63 7 10 14 13 14 6 0
-6 -4 -15 -10 -18 -5 -3 -7 -20 -3 -38 13 -70 21 -68 18 3 -2 66 1 81 26 125
34 60 89 125 106 125 7 0 16 -12 20 -27z m1270 -40 c35 -38 63 -77 63 -88 0
-11 -7 -42 -15 -69 -8 -27 -15 -68 -15 -91 0 -31 -8 -54 -31 -86 -17 -24 -40
-59 -51 -76 -35 -57 -49 -37 -27 40 5 21 16 37 24 37 22 0 18 14 -7 25 -22 10
-23 16 -26 140 -3 131 4 235 16 235 4 0 35 -30 69 -67z m-635 -5 c1 -44 2 -46
5 -15 5 40 9 43 48 25 22 -10 26 -17 21 -42 -18 -104 -37 -259 -33 -270 7 -18
57 -30 71 -16 5 5 11 42 12 80 0 47 7 81 20 105 18 35 46 46 60 23 4 -6 3 -8
-4 -4 -6 3 0 -13 13 -36 38 -69 51 -153 38 -250 -7 -46 -14 -91 -18 -100 -5
-12 -2 -15 12 -12 21 5 55 -42 73 -102 10 -33 9 -48 -8 -97 l-19 -57 21 -1
c12 -1 31 -1 44 -1 18 1 22 -4 22 -26 0 -15 -7 -39 -14 -55 -14 -26 -14 -28
15 -42 16 -9 29 -22 29 -30 0 -17 -65 -84 -83 -86 -7 -1 4 -5 23 -8 26 -5 5
-9 -85 -18 -66 -6 -123 -9 -126 -5 -3 4 -12 61 -19 127 -6 66 -14 122 -17 125
-3 3 -3 -40 1 -95 17 -284 19 -335 9 -335 -6 0 -23 18 -38 40 -15 22 -29 39
-30 38 -10 -11 29 -227 50 -274 14 -32 24 -59 22 -61 -2 -2 -17 3 -33 12 -16
8 -34 15 -41 15 -7 0 -13 35 -17 103 -10 155 -26 776 -26 1005 l0 202 -24 0
c-35 0 -39 11 -31 95 5 54 11 75 21 75 8 0 14 5 14 10 0 6 5 10 10 10 6 0 11
-24 12 -52z m-67 6 c-10 -4 -4 -132 8 -164 3 -8 8 -304 12 -656 l7 -641 -24 2
c-13 1 -24 3 -26 4 -2 0 4 11 12 23 19 27 21 58 3 58 -7 0 -35 -7 -61 -16 -26
-9 -50 -14 -53 -11 -3 3 0 58 6 122 8 84 19 136 40 188 16 40 32 88 36 107 3
19 9 44 11 55 3 11 -5 3 -17 -17 -13 -21 -26 -38 -30 -38 -4 0 -12 45 -19 100
-14 111 -27 135 -22 38 2 -34 1 -95 -3 -136 l-7 -75 -86 7 c-150 11 -243 27
-234 40 28 39 54 130 50 181 l-3 56 40 -5 c22 -3 75 -8 118 -12 l77 -6 -50 52
-50 51 0 173 c0 150 2 175 17 187 15 13 16 10 10 -28 -4 -23 -3 -44 2 -47 4
-3 11 -47 15 -97 10 -131 24 -142 18 -15 -4 102 -4 106 16 106 30 0 34 11 33
98 -1 68 11 158 25 201 7 20 41 -37 71 -119 l24 -65 -6 153 -6 152 28 -1 c15
0 23 -3 18 -5z m49 -166 c5 -15 19 -850 20 -1190 1 -176 -2 -228 -11 -228 -10
0 -13 47 -13 203 -1 262 -10 835 -17 1055 -4 128 -3 172 6 172 6 0 13 -6 15
-12z m-808 -45 c-2 -15 -8 -29 -15 -31 -12 -4 -15 17 -5 42 10 26 23 18 20
-11z m1629 -136 l58 -127 -29 -31 c-16 -17 -54 -50 -84 -74 l-55 -42 -23 22
c-21 20 -22 25 -13 101 5 43 23 121 40 172 17 51 31 100 31 109 0 29 15 3 75
-130z m-337 88 c12 -14 22 -27 22 -30 0 -3 -25 -5 -55 -5 -30 0 -55 3 -55 6 0
9 49 54 59 54 4 0 17 -11 29 -25z m-1048 -405 c0 -5 -5 -10 -11 -10 -5 0 -7 5
-4 10 3 6 8 10 11 10 2 0 4 -4 4 -10z m-101 -157 c34 -38 64 -78 67 -90 3 -12
0 -47 -6 -78 l-12 -57 -34 33 c-42 41 -45 29 -4 -18 17 -18 30 -31 30 -28 0 4
12 -7 26 -25 25 -29 26 -32 9 -50 -16 -18 -19 -18 -51 -3 -18 9 -31 20 -28 25
3 4 -6 8 -19 8 -27 0 -298 77 -309 88 -4 4 6 25 23 45 33 40 92 71 121 64 21
-6 28 11 15 40 -9 20 -4 28 37 68 26 25 53 45 61 45 7 0 41 -30 74 -67z m1436
-143 c25 -10 26 -11 24 -102 -1 -54 -5 -85 -9 -73 -4 11 -6 23 -4 26 2 3 -13
21 -34 40 -34 31 -35 32 -12 4 l25 -30 -27 24 c-15 13 -25 28 -22 33 3 5 -1
17 -9 26 -8 9 -20 27 -26 40 -11 21 -10 22 28 22 22 0 51 -4 66 -10z m-161
-28 c3 -10 20 -26 37 -36 34 -20 33 -34 -2 -16 -20 11 -21 10 -17 -11 3 -13 9
-33 13 -44 7 -19 7 -19 -9 -4 -10 9 -21 31 -25 50 -4 19 -11 44 -15 57 -4 13
-3 22 3 22 5 0 12 -8 15 -18z m-24 -40 c0 -5 -6 -17 -14 -28 -12 -15 -17 -16
-27 -7 -10 10 -9 15 1 28 13 16 40 21 40 7z m-794 -122 c-3 -36 -6 -83 -6
-105 0 -39 -3 -42 -54 -72 -57 -33 -157 -73 -181 -73 -8 0 -19 17 -24 38 -15
52 -25 202 -17 243 l6 34 141 0 141 0 -6 -65z m561 56 c126 -1 116 7 128 -91
3 -27 13 -78 22 -113 9 -34 14 -64 12 -66 -13 -13 -274 47 -296 68 -13 11 -32
124 -33 184 0 30 2 32 28 25 15 -4 77 -7 139 -7z m433 -70 c0 -2 -6 -9 -13
-15 -10 -8 -14 -7 -14 4 0 8 6 15 14 15 7 0 13 -2 13 -4z m-1004 -252 c-3 -9
-19 -14 -43 -13 l-38 2 35 6 c33 6 35 9 40 51 l4 45 4 -39 c2 -21 1 -44 -2
-52z m358 -139 c3 -9 0 -15 -9 -15 -8 0 -15 7 -15 15 0 8 4 15 9 15 5 0 11 -7
15 -15z m321 -66 c12 -36 -40 -54 -65 -24 -14 17 -15 17 20 32 35 16 38 16 45
-8z m-585 -28 c0 -24 -39 -39 -51 -20 -13 20 -11 27 9 32 34 9 42 7 42 -12z
m129 -357 c13 -19 11 -25 -12 -56 -36 -46 -34 -65 9 -109 l37 -37 -22 -35
c-28 -45 -27 -68 5 -98 20 -19 25 -31 22 -58 -3 -26 1 -36 19 -48 26 -17 30
-38 8 -47 -20 -7 -19 -54 1 -102 13 -30 15 -53 9 -99 -5 -33 -7 -93 -6 -133
l2 -72 -113 0 -113 0 -2 132 c-1 98 2 141 14 170 8 21 13 55 11 76 -3 20 0 45
6 54 8 13 5 22 -9 39 -17 18 -18 23 -5 27 8 3 29 19 47 37 42 42 55 115 26
148 -35 38 -35 46 -9 78 28 33 32 68 15 118 -9 24 -7 55 6 134 26 158 29 161
35 27 3 -83 10 -132 19 -146z m-296 -471 c-22 -15 -22 -15 30 -63 37 -35 49
-51 41 -59 -7 -8 -21 -4 -50 17 -53 38 -73 49 -56 31 18 -19 15 -29 -10 -29
-27 0 -88 35 -88 51 0 5 -13 1 -29 -10 -16 -12 -32 -21 -35 -21 -13 0 -5 28
14 45 11 10 20 24 20 31 0 13 39 19 135 22 48 1 49 0 28 -15z m5 -133 c34 -21
45 -55 15 -46 -10 3 -40 7 -68 10 l-50 6 63 -22 c44 -16 62 -27 62 -39 0 -15
-5 -16 -32 -8 -42 12 -58 11 -35 -2 9 -5 17 -16 17 -24 0 -11 -7 -11 -36 -3
-20 5 -69 8 -109 6 l-72 -3 16 22 c9 12 33 29 54 38 42 17 50 30 12 21 -14 -4
-30 -4 -35 -1 -17 11 14 45 40 45 14 0 32 5 40 10 25 16 83 11 118 -10z m132
-329 c0 -10 -7 -22 -16 -25 -23 -9 -24 -8 -24 19 0 18 5 25 20 25 13 0 20 -7
20 -19z m280 -7 c0 -21 -4 -25 -22 -22 -15 2 -24 11 -26 26 -3 18 1 22 22 22
21 0 26 -5 26 -26z m-530 -9 c14 -4 56 -8 94 -9 58 -2 71 -6 77 -22 11 -27 10
-34 -1 -34 -5 0 -10 6 -10 14 0 33 -44 29 -53 -5 -3 -12 -14 -19 -30 -19 -14
0 -32 -3 -41 -6 -11 -4 -20 4 -31 27 -8 19 -14 28 -15 22 0 -9 -17 -13 -50
-13 -41 0 -50 3 -51 18 -1 16 -2 16 -6 0 -2 -9 1 -26 7 -37 10 -20 8 -21 -33
-21 -50 0 -72 18 -62 49 6 21 76 48 95 36 5 -3 12 0 16 6 6 11 34 9 94 -6z
m833 -1 c3 -4 22 -8 41 -9 56 -3 84 -38 52 -64 -15 -13 -76 4 -76 21 0 5 -3 7
-7 5 -5 -3 -29 -2 -55 2 -42 7 -49 5 -62 -14 -11 -17 -21 -20 -51 -17 -21 3
-41 12 -48 23 -14 23 -47 25 -47 4 0 -8 -4 -15 -10 -15 -11 0 -13 20 -4 44 4
11 17 14 52 10 26 -3 67 -1 92 4 54 12 114 14 123 6z"/>
<path d="M1483 4181 c-24 -4 -46 -11 -50 -16 -5 -4 6 -5 23 -2 44 8 162 -10
207 -32 40 -20 42 -19 27 9 -17 32 -127 54 -207 41z"/>
<path d="M1579 4129 c23 -4 53 -11 65 -14 12 -2 8 2 -9 10 -16 8 -46 14 -65
13 -34 0 -34 0 9 -9z"/>
<path d="M1973 4114 l-28 -25 29 18 c17 10 53 21 80 24 l51 6 -52 2 c-43 1
-57 -3 -80 -25z"/>
<path d="M1503 4106 c-17 -8 -44 -33 -59 -55 -22 -34 -25 -46 -18 -78 l8 -38
6 48 c4 29 14 56 28 69 23 23 43 18 23 -6 -20 -24 -16 -115 7 -145 28 -38 89
-41 122 -6 21 23 25 36 25 91 0 52 2 61 12 48 10 -14 11 -12 9 12 -6 56 -97
90 -163 60z m35 -63 c-2 -10 -13 -19 -26 -21 -24 -4 -29 7 -10 26 18 18 40 15
36 -5z m77 -13 c-3 -5 -10 -10 -16 -10 -5 0 -9 5 -9 10 0 6 7 10 16 10 8 0 12
-4 9 -10z m-35 -100 c0 -5 -2 -10 -4 -10 -3 0 -8 5 -11 10 -3 6 -1 10 4 10 6
0 11 -4 11 -10z m-3 -15 c43 0 43 0 20 -17 -28 -22 -55 -23 -79 -1 -23 21 -24
38 0 27 9 -4 36 -8 59 -9z"/>
<path d="M1994 4102 c-24 -15 -33 -30 -38 -62 -4 -24 -4 -45 -1 -48 3 -3 5 4
5 15 0 12 9 31 20 44 l20 24 -6 -35 c-4 -19 -7 -37 -6 -40 1 -72 4 -83 27
-105 33 -34 83 -34 116 1 19 20 24 36 24 77 0 29 -4 63 -9 77 l-8 25 21 -20
c12 -12 25 -41 29 -65 8 -42 9 -43 15 -17 8 29 -5 62 -46 111 -32 39 -115 48
-163 18z m49 -56 c3 -12 -30 -32 -39 -24 -11 12 5 40 21 36 9 -2 17 -7 18 -12z
m77 -16 c0 -5 -4 -10 -10 -10 -5 0 -10 5 -10 10 0 6 5 10 10 10 6 0 10 -4 10
-10z m-47 -120 c14 0 33 7 41 16 14 14 16 14 16 0 0 -18 -38 -46 -62 -46 -10
0 -27 9 -38 20 -25 25 -27 49 -2 27 10 -10 30 -17 45 -17z"/>
<path d="M1548 3843 c6 -2 18 -2 25 0 6 3 1 5 -13 5 -14 0 -19 -2 -12 -5z"/>
<path d="M1791 3834 c0 -11 3 -14 6 -6 3 7 2 16 -1 19 -3 4 -6 -2 -5 -13z"/>
<path d="M2058 3843 c7 -3 16 -2 19 1 4 3 -2 6 -13 5 -11 0 -14 -3 -6 -6z"/>
<path d="M1808 3423 c7 -3 16 -2 19 1 4 3 -2 6 -13 5 -11 0 -14 -3 -6 -6z"/>
<path d="M1066 2881 c9 -17 17 -31 19 -31 8 0 -9 40 -21 51 -10 8 -10 3 2 -20z"/>
<path d="M1110 2821 c5 -11 15 -23 21 -27 6 -3 3 5 -6 20 -20 30 -30 35 -15 7z"/>
<path d="M1408 473 c18 -2 45 -2 60 0 15 2 0 4 -33 4 -33 0 -45 -2 -27 -4z"/>
<path d="M1953 5243 c15 -2 37 -2 50 0 12 2 0 4 -28 4 -27 0 -38 -2 -22 -4z"/>
<path d="M1878 5233 c6 -2 18 -2 25 0 6 3 1 5 -13 5 -14 0 -19 -2 -12 -5z"/>
<path d="M1838 5223 c7 -3 16 -2 19 1 4 3 -2 6 -13 5 -11 0 -14 -3 -6 -6z"/>
<path d="M1790 5210 c-8 -5 -10 -10 -5 -10 6 0 17 5 25 10 8 5 11 10 5 10 -5
0 -17 -5 -25 -10z"/>
<path d="M2508 4853 c17 -2 47 -2 65 0 17 2 3 4 -33 4 -36 0 -50 -2 -32 -4z"/>
<path d="M2471 3914 c0 -11 3 -14 6 -6 3 7 2 16 -1 19 -3 4 -6 -2 -5 -13z"/>
<path d="M2490 3801 c0 -6 4 -13 10 -16 6 -3 7 1 4 9 -7 18 -14 21 -14 7z"/>
<path d="M2708 2553 c12 -17 22 -34 22 -37 0 -3 -16 -24 -36 -46 -29 -32 -34
-42 -25 -57 10 -17 10 -17 11 0 0 10 14 36 31 57 34 42 33 64 -3 96 l-22 19
22 -32z"/>
<path d="M1172 1718 c-16 -16 -15 -93 2 -126 8 -15 25 -36 37 -47 l24 -20 -19
23 c-11 12 -16 25 -13 29 4 3 -2 12 -13 20 -15 11 -20 26 -20 63 0 51 15 77
23 38 4 -20 4 -19 6 5 1 29 -8 34 -27 15z"/>
<path d="M1022 1700 c0 -14 2 -19 5 -12 2 6 2 18 0 25 -3 6 -5 1 -5 -13z"/>
<path d="M1031 1654 c0 -11 3 -14 6 -6 3 7 2 16 -1 19 -3 4 -6 -2 -5 -13z"/>
<path d="M1191 1654 c-1 -12 8 -32 19 -45 l21 -24 -14 30 c-8 17 -17 37 -20
45 -4 10 -6 8 -6 -6z"/>
<path d="M1070 1556 c14 -18 91 -56 111 -56 8 1 -1 7 -18 15 -18 8 -33 19 -33
25 0 6 -4 9 -8 6 -5 -3 -21 2 -37 10 -24 12 -26 12 -15 0z"/>
<path d="M1230 1512 c0 -6 -8 -13 -17 -15 -16 -4 -16 -5 -1 -6 18 -1 34 16 24
26 -3 4 -6 1 -6 -5z"/>
<path d="M2255 540 c4 -25 2 -29 -20 -32 -22 -3 -21 -5 15 -20 l40 -17 -7 27
c-4 15 -6 35 -6 44 1 9 -5 19 -13 22 -11 4 -13 -1 -9 -24z"/>
</g>
</svg>
